<svg xmlns="http://www.w3.org/2000/svg" version="1.1" xmlns:xlink="http://www.w3.org/1999/xlink" xmlns:svgjs="http://svgjs.dev/svgjs" width="1500" height="1500" viewBox="0 0 1500 1500"><rect width="1500" height="1500" fill="#1f232c"></rect><g transform="matrix(0.6666666666666666,0,0,0.6666666666666666,249.39393939393938,599.7272080642458)"><svg viewBox="0 0 396 119" data-background-color="#1f232c" preserveAspectRatio="xMidYMid meet" height="450" width="1500" xmlns="http://www.w3.org/2000/svg" xmlns:xlink="http://www.w3.org/1999/xlink"><g id="tight-bounds" transform="matrix(1,0,0,1,0.2400000000000091,0.10820746784918356)"><svg viewBox="0 0 395.52 118.78358506430165" height="118.78358506430165" width="395.52"><g><svg viewBox="0 0 604.682695372373 181.59986443839875" height="118.78358506430165" width="395.52"><g transform="matrix(1,0,0,1,209.16269537237298,56.11699401476875)"><svg viewBox="0 0 395.52 69.36587640886125" height="69.36587640886125" width="395.52"><g id="textblocktransform"><svg viewBox="0 0 395.52 69.36587640886125" height="69.36587640886125" width="395.52" id="textblock"><g><svg viewBox="0 0 395.52 69.36587640886125" height="69.36587640886125" width="395.52"><g transform="matrix(1,0,0,1,0,0)"><svg width="395.52" viewBox="3.64 -35.77 251.24 44.07" height="69.36587640886125" data-palette-color="#fc5c65"><path d="M20.92-17.16L20.92-31.35 24.05-31.35 24.05 0 20.92 0 20.92-14.7 6.76-14.7 6.76 0 3.64 0 3.64-31.35 6.76-31.35 6.76-17.16 20.92-17.16ZM34.59-30.86L34.59-30.86Q34.59-31.88 35.23-32.5 35.86-33.11 36.81-33.11L36.81-33.11Q37.81-33.11 38.41-32.54 39.01-31.98 39.01-30.91 39.01-29.83 38.41-29.27 37.81-28.71 36.81-28.71L36.81-28.71Q35.84-28.71 35.21-29.28 34.59-29.86 34.59-30.86ZM35.25-21.85L30.56-21.85 30.56-24.05 38.38-24.05 38.38-2.2 43.06-2.2 43.06 0 30.56 0 30.56-2.2 35.25-2.2 35.25-21.85ZM56.93 5.74L56.93 5.74Q60.88 5.74 62.86 4.39 64.84 3.05 64.84 1.2L64.84 1.2Q64.84-0.2 64.12-0.89 63.4-1.59 61.25-1.59L61.25-1.59 52-1.59Q50.21 0.1 50.21 1.93L50.21 1.93Q50.21 2.42 50.28 2.77 50.34 3.13 50.53 3.61 50.73 4.1 51.18 4.44 51.63 4.79 52.33 5.1 53.02 5.42 54.21 5.58 55.39 5.74 56.93 5.74ZM62.32-23.85L62.32-23.85 69.33-23.85 69.33-21.56 63.89-21.56Q65.16-20.61 65.84-19.21 66.52-17.82 66.52-16.46L66.52-16.46Q66.52-13.13 64.03-11.17 61.54-9.2 57.49-9.2L57.49-9.2Q54.71-9.2 52.46-10.11L52.46-10.11Q50.85-7.5 50.85-6.2L50.85-6.2Q50.85-5.62 51.04-5.07 51.24-4.52 51.44-4.27L51.44-4.27 51.61-4.03 60.86-4.03Q64.72-4.03 66.24-2.83 67.77-1.64 67.77 1L67.77 1Q67.77 2 67.46 2.95 67.16 3.91 66.38 4.9 65.6 5.88 64.4 6.63 63.2 7.37 61.24 7.84 59.27 8.3 56.78 8.3L56.78 8.3Q54.46 8.3 52.67 7.87 50.87 7.45 49.85 6.82 48.82 6.2 48.18 5.35 47.53 4.49 47.31 3.76 47.09 3.03 47.09 2.27L47.09 2.27Q47.09 0.9 48.01-0.46 48.92-1.83 49.8-2.34L49.8-2.34Q48.99-2.88 48.53-3.86 48.07-4.83 48.07-5.79L48.07-5.79Q48.07-7.08 48.63-8.23 49.19-9.38 50.58-11.35L50.58-11.35Q47.87-13.62 47.87-16.8L47.87-16.8Q47.87-20.63 50.52-22.52 53.17-24.41 57.37-24.41L57.37-24.41Q58.47-24.41 59.93-24.13 61.4-23.85 62.32-23.85ZM57.51-22.09L57.51-22.09Q54.15-22.09 52.57-20.65 51-19.21 51-16.82L51-16.82Q51-14.28 52.66-12.94 54.32-11.6 57.27-11.6L57.27-11.6Q60.4-11.6 62.03-12.84 63.67-14.09 63.67-16.55L63.67-16.55Q63.67-18.95 62.1-20.52 60.54-22.09 57.51-22.09ZM77.41-19.53L77.41-19.53 77.41 0 74.28 0 74.28-33.15 77.41-33.15 77.41-22.24Q81.34-24.41 84.71-24.41L84.71-24.41Q88.15-24.41 89.81-22.45 91.47-20.48 91.47-16.19L91.47-16.19 91.47 0 88.35 0 88.35-16.33Q88.35-19.29 87.49-20.57 86.64-21.85 84.51-21.85L84.51-21.85Q81.71-21.85 77.41-19.53ZM130.38-22.46L130.38-22.46Q130.38-23.73 130.18-24.71 129.97-25.68 129.61-26.37 129.26-27.05 128.59-27.51 127.92-27.98 127.25-28.26 126.57-28.54 125.45-28.69 124.33-28.83 123.33-28.87 122.33-28.91 120.79-28.91L120.79-28.91 117.88-28.91 117.88-16.16 120.01-16.16Q122.13-16.16 123.55-16.25 124.96-16.33 126.21-16.59 127.45-16.85 128.19-17.27 128.92-17.7 129.44-18.41 129.97-19.12 130.18-20.09 130.38-21.07 130.38-22.46ZM133.56-3.22L134.92-1 132.36 0.61Q127.31-7.74 124.55-13.99L124.55-13.99Q122.79-13.84 120.57-13.84L120.57-13.84 117.88-13.84 117.88 0 114.76 0 114.76-31.35 120.93-31.35Q123.18-31.35 124.77-31.23 126.35-31.1 127.87-30.77 129.38-30.44 130.36-29.82 131.34-29.2 132.08-28.23 132.82-27.27 133.17-25.84 133.51-24.41 133.51-22.51L133.51-22.51Q133.51-18.92 132.03-17.03 130.55-15.14 127.45-14.43L127.45-14.43Q128.45-12.16 130.32-8.8 132.19-5.44 133.56-3.22L133.56-3.22ZM155.91-2.97Q153.6 0.24 148.84 0.24 144.08 0.24 141.77-2.97 139.46-6.18 139.46-12.08L139.46-12.08Q139.46-18.26 141.72-21.34 143.98-24.41 148.84-24.41 153.7-24.41 155.95-21.34 158.21-18.26 158.21-12.08L158.21-12.08Q158.21-6.18 155.91-2.97ZM151.33-21.37Q150.25-21.85 148.84-21.85 147.42-21.85 146.35-21.37 145.27-20.9 144.57-20.07 143.86-19.24 143.41-17.99 142.95-16.75 142.77-15.31 142.59-13.87 142.59-12.08L142.59-12.08Q142.59-9.79 142.88-8.09 143.17-6.4 143.87-5.05 144.57-3.71 145.81-3.03 147.06-2.34 148.84-2.34 150.62-2.34 151.86-3.03 153.11-3.71 153.81-5.05 154.5-6.4 154.79-8.09 155.09-9.79 155.09-12.08L155.09-12.08Q155.09-13.87 154.9-15.31 154.72-16.75 154.27-17.99 153.82-19.24 153.11-20.07 152.4-20.9 151.33-21.37ZM162.6-30.93L162.6-33.15 171.13-33.15 171.13-2.2 176.28-2.2 176.28 0 162.56 0 162.56-2.2 168-2.2 168-30.93 162.6-30.93ZM179.25-30.93L179.25-33.15 187.77-33.15 187.77-2.2 192.92-2.2 192.92 0 179.2 0 179.2-2.2 184.65-2.2 184.65-30.93 179.25-30.93ZM206.54-21.85L206.54-21.85Q203.47-21.85 201.83-19.71 200.2-17.58 199.9-13.65L199.9-13.65 212.28-13.65 212.28-14.87Q212.28-18.07 210.73-19.96 209.18-21.85 206.54-21.85ZM206.96-2.34L206.96-2.34Q210.72-2.34 213.8-4.3L213.8-4.3 214.75-1.83Q213.09-0.81 211.04-0.28 208.99 0.24 207.13 0.24L207.13 0.24Q202.2 0.24 199.49-2.73 196.78-5.71 196.78-12.11L196.78-12.11Q196.78-18.24 199.42-21.33 202.05-24.41 206.52-24.41L206.52-24.41Q210.55-24.41 212.87-21.78 215.19-19.14 215.19-14.75L215.19-14.75Q215.19-13.75 214.99-11.45L214.99-11.45 199.9-11.45Q199.93-9.28 200.34-7.63 200.76-5.98 201.39-4.99 202.03-4 202.97-3.39 203.91-2.78 204.86-2.56 205.81-2.34 206.96-2.34ZM224.22-24.05L224.34-21.95Q225.78-22.92 227.99-23.63 230.2-24.34 232.06-24.41L232.06-24.41 232.06-21.8Q229.93-21.8 227.75-21.15 225.56-20.51 224.36-19.63L224.36-19.63 224.36 0 221.24 0 221.24-24.05 224.22-24.05ZM246.7 0.17L246.7 4.59 244.77 4.59 244.77 0.24Q239.5 0.15 236.13-1.66L236.13-1.66 236.81-4.22Q238.11-3.66 238.91-3.36 239.72-3.05 241.38-2.71 243.04-2.37 244.77-2.34L244.77-2.34 244.77-15.04 242.75-15.72Q239.47-16.82 237.8-18.65 236.13-20.48 236.13-23.66L236.13-23.66Q236.13-27.61 238.49-29.58 240.84-31.54 244.75-31.74L244.75-31.74 244.75-35.77 246.7-35.77 246.7-31.74Q250.95-31.57 254.12-30.25L254.12-30.25 253.56-27.76Q250.02-29.08 246.7-29.17L246.7-29.17 246.7-17.5Q249.8-16.38 250.78-15.87L250.78-15.87Q253.76-14.31 254.54-11.4L254.54-11.4Q254.88-10.16 254.88-8.62L254.88-8.62Q254.88-4.74 252.69-2.47 250.51-0.2 246.7 0.17L246.7 0.17ZM246.7-14.4L246.7-14.4 246.7-2.47Q249.09-2.86 250.42-4.39 251.75-5.93 251.75-8.67L251.75-8.67Q251.75-9.96 251.45-10.86 251.14-11.77 250.45-12.43 249.75-13.09 248.92-13.5 248.09-13.92 246.7-14.4ZM243.75-18.58L244.75-18.21 244.75-29.13Q239.25-28.61 239.25-23.73L239.25-23.73Q239.25-21.73 240.16-20.64 241.06-19.56 243.75-18.58L243.75-18.58Z" opacity="1" transform="matrix(1,0,0,1,0,0)" fill="#fc5c65" class="wordmark-text-0" data-fill-palette-color="primary" id="text-0"></path></svg></g></svg></g></svg></g></svg></g><g><svg viewBox="0 0 192.78707673327466 181.59986443839875" height="181.59986443839875" width="192.78707673327466"><g><svg xmlns="http://www.w3.org/2000/svg" xmlns:xlink="http://www.w3.org/1999/xlink" version="1.1" x="0" y="0" viewBox="2.455 4.271 54.628 51.458" enable-background="new 0 0 60 60" xml:space="preserve" height="181.59986443839875" width="192.78707673327466" class="icon-icon-0" data-fill-palette-color="accent" id="icon-0"><g fill="#fc5c65" data-fill-palette-color="accent"><g fill="#fc5c65" data-fill-palette-color="accent"><polygon fill="#fc5c65" points="3.545,47.557 2.455,46.525 16.324,31.863 24.401,31.992 28.316,9.992 35.847,21.881     41.469,15.356 56.159,4.683 57.04,5.897 42.421,16.518 35.665,24.398 29.117,14.059 25.655,33.512 16.961,33.374   " data-fill-palette-color="accent"></polygon></g><g fill="#fc5c65" data-fill-palette-color="accent"><polygon fill="#fc5c65" points="57.083,12.513 55.583,12.513 55.583,5.771 48.842,5.771 48.842,4.271 57.083,4.271   " data-fill-palette-color="accent"></polygon></g><g fill="#fc5c65" data-fill-palette-color="accent"><rect x="3" y="54.229" fill="#fc5c65" width="54" height="1.5" data-fill-palette-color="accent"></rect></g><g fill="#fc5c65" data-fill-palette-color="accent"><g fill="#fc5c65" data-fill-palette-color="accent"><rect x="14.554" y="50.207" fill="#fc5c65" width="12.859" height="1.5" data-fill-palette-color="accent"></rect></g></g><g fill="#fc5c65" data-fill-palette-color="accent"><g fill="#fc5c65" data-fill-palette-color="accent"><rect x="29.352" y="50.207" fill="#fc5c65" width="12.85" height="1.5" data-fill-palette-color="accent"></rect></g><g fill="#fc5c65" data-fill-palette-color="accent"><rect x="29.352" y="46.181" fill="#fc5c65" width="12.85" height="1.5" data-fill-palette-color="accent"></rect></g></g><g fill="#fc5c65" data-fill-palette-color="accent"><g fill="#fc5c65" data-fill-palette-color="accent"><rect x="44.141" y="50.207" fill="#fc5c65" width="12.859" height="1.5" data-fill-palette-color="accent"></rect></g><g fill="#fc5c65" data-fill-palette-color="accent"><rect x="44.141" y="46.181" fill="#fc5c65" width="12.859" height="1.5" data-fill-palette-color="accent"></rect></g><g fill="#fc5c65" data-fill-palette-color="accent"><rect x="44.141" y="42.153" fill="#fc5c65" width="12.859" height="1.5" data-fill-palette-color="accent"></rect></g><g fill="#fc5c65" data-fill-palette-color="accent"><rect x="44.141" y="38.132" fill="#fc5c65" width="12.859" height="1.5" data-fill-palette-color="accent"></rect></g></g></g></svg></g></svg></g></svg></g><defs></defs></svg><rect width="395.52" height="118.78358506430165" fill="none" stroke="none" visibility="hidden"></rect></g></svg></g></svg>